<svg width="20" height="20" viewBox="0 0 20 20" fill="none" xmlns="http://www.w3.org/2000/svg">
<path d="M15.5284 14.2321L19.4542 18.1579L18.1579 19.4542L14.2321 15.5284C12.8205 16.6577 11.0303 17.3333 9.08333 17.3333C4.52933 17.3333 0.833328 13.6373 0.833328 9.08333C0.833328 4.52933 4.52933 0.833328 9.08333 0.833328C13.6373 0.833328 17.3333 4.52933 17.3333 9.08333C17.3333 11.0303 16.6577 12.8205 15.5284 14.2321ZM13.6893 13.5519C14.8102 12.3967 15.5 10.821 15.5 9.08333C15.5 5.53812 12.6285 2.66666 9.08333 2.66666C5.53812 2.66666 2.66666 5.53812 2.66666 9.08333C2.66666 12.6285 5.53812 15.5 9.08333 15.5C10.821 15.5 12.3967 14.8102 13.5519 13.6893L13.6893 13.5519Z" fill="#B32020"/>
</svg>
