<svg width="138" height="100" viewBox="0 0 138 100" fill="none" xmlns="http://www.w3.org/2000/svg">
<g clip-path="url(#clip0_649_202743)">
<path d="M22.1339 88.7819C13.9987 91.6288 6.50001 95.2934 -0.00509644 99.7704C7.21684 96.6939 15.6569 94.2321 24.8265 92.3992C23.602 91.4452 22.6824 90.1811 22.1352 88.7819H22.1339Z" fill="white"/>
<path d="M40.4605 83.9133L38.0332 89.2079C37.8571 89.6008 37.648 89.9656 37.4247 90.3176C55.3112 87.9643 74.949 87.7079 93.3354 89.5663C91.4081 87.6735 90.3189 85.3061 89.6569 82.7564C73.3865 80.5179 56.3125 80.9107 40.4617 83.9133H40.4605Z" fill="white"/>
<path d="M116.245 89.1059C115.041 90.4248 113.412 91.4592 111.612 92.2092C121.261 94.0625 130.195 96.5842 137.876 99.7692C131.439 95.4554 124.121 91.9044 116.244 89.1046L116.245 89.1059Z" fill="white"/>
<path d="M115.879 82.3712C117.13 73.6339 110.449 55.1186 109.224 49.926C108.116 45.213 108.075 41.25 110.476 38.6939C114.912 33.9809 120.145 36.3342 124.616 34.5357C128.464 32.9872 129.884 29.3967 129.884 26.4949C129.884 23.4452 126.003 20.9503 123.784 20.3954C119.741 19.3814 102.017 21.0855 98.1352 18.5893C93.8482 15.8304 95.7755 1.8125 83.4337 0.283168C80.4783 -0.0816284 76.3877 1.34439 73.7028 6.07909C75.4681 7.39159 77.0969 8.88521 78.565 10.5217C79.5383 8.58036 80.8163 7.13393 82.4668 6.8023C88.0115 5.69261 89.1543 14.4643 90.5076 17.6148C92.1709 21.5026 95.4579 24.8916 101.32 25.3852C107.981 25.9401 123.508 23.4439 123.508 27.8801C123.508 30.9299 116.577 30.375 112.417 31.2066C108.259 32.0383 103.261 37.3061 102.983 43.1288C102.679 49.5536 111.585 73.0791 111.031 79.1786C110.476 85.2844 105.486 86.949 100.765 83.06C96.0523 79.1786 96.9171 70.861 96.3291 65.5931C95.7742 60.602 93.2793 54.7806 86.3482 54.7806C80.2143 54.7806 71.7015 62.0906 67.5089 61.7258C65.19 62.7538 62.7207 63.5179 60.1518 63.977C60.9158 65.1199 61.9579 66.06 63.3304 66.7028C73.7844 71.6059 78.0319 60.6033 85.5179 61.1582C96.9668 62.0038 84.4094 87.2271 102.708 90.2768C107.408 91.0549 115.029 88.3495 115.881 82.3712H115.879Z" fill="white"/>
<path d="M38.4847 60.2143L36.5268 64.4949C37.5714 64.5523 38.6173 64.8099 39.6263 65.273C40.4515 65.648 41.1824 66.1365 41.8265 66.7054L43.7513 62.4987C42.824 62.1901 41.9005 61.838 40.9885 61.4401C40.1275 61.0638 39.2946 60.6556 38.4834 60.213L38.4847 60.2143Z" fill="white"/>
<path d="M62.8304 10.5702C63.0599 10.6646 63.2832 10.7666 63.5128 10.8674C63.7564 10.9822 64 11.097 64.236 11.2258V11.2194C65.7105 11.9566 67.0689 12.8291 68.3074 13.8163C68.389 13.8839 68.463 13.9452 68.5446 14.0128C68.5918 14.0536 68.6467 14.0944 68.6939 14.1416C69.6607 14.9464 70.5536 15.8253 71.3584 16.7653C72.1084 17.6378 72.7985 18.5778 73.4005 19.551C73.5421 19.7679 73.6709 19.9834 73.7997 20.2003C77.4171 26.4222 78.0599 34.2589 74.8342 41.3049C73.2117 44.8419 70.8036 47.7691 67.9158 49.9809C67.551 50.2577 67.1849 50.5217 66.8074 50.7794C65.3878 51.7322 63.8661 52.5306 62.2768 53.139C62.0944 53.213 61.9043 53.2806 61.7219 53.3419C61.3839 53.4707 61.0395 53.5855 60.6939 53.6939C60.3827 53.7959 60.0714 53.8763 59.7602 53.9643C58.3801 54.3227 56.9541 54.5587 55.514 54.6607C54.8508 54.7015 54.1824 54.722 53.5051 54.7079C50.449 54.6467 47.352 53.9783 44.4031 52.6186C41.3061 51.199 38.676 49.1837 36.5855 46.7564L31.9668 50.685C34.611 53.7615 37.9515 56.3316 41.8801 58.1301C46.4783 60.2334 51.3342 61.0383 56.0332 60.6926C58.1569 60.537 60.2398 60.1518 62.2615 59.5434C63.2551 59.2462 64.236 58.8942 65.19 58.4949C67.5025 57.5281 69.6939 56.264 71.6952 54.722C75.2997 51.9362 78.3087 48.2577 80.3367 43.8278C85.1046 33.4209 83.1977 21.6684 76.4082 13.3572C76.023 12.8903 75.6237 12.4311 75.2117 11.9847C73.9745 10.6518 72.602 9.42859 71.1008 8.33292C70.8036 8.11609 70.5051 7.9069 70.2015 7.7041C68.8967 6.82527 67.5102 6.03318 66.0293 5.35716C59.0242 2.1518 51.4158 1.9694 44.6543 4.26149L46.588 10.0026C51.7207 8.26532 57.4758 8.32527 62.8304 10.5702Z" fill="white"/>
<path d="M32.3329 39.4694C30.3903 34.0319 30.4821 27.8584 33.0753 22.1875C35.3763 17.1709 39.2551 13.375 43.8533 11.125L41.2079 5.67474C35.3865 8.51148 30.477 13.3189 27.5638 19.6696C24.2985 26.8099 24.1696 34.5906 26.6059 41.4477L32.3329 39.4694Z" fill="white"/>
<path d="M38.2079 68.3393C35.486 67.0931 32.2691 68.2895 31.023 71.0115L25.449 83.1888C24.2028 85.9107 25.3992 89.1275 28.1212 90.3737C30.8431 91.6199 34.06 90.4235 35.3061 87.7015L40.8801 75.5242C42.1263 72.8023 40.9299 69.5854 38.2079 68.3393Z" fill="white"/>
<path d="M62.0995 50.2041C69.125 47.2219 74.0485 40.264 74.0485 32.1492C74.0485 29.2959 73.44 26.5842 72.338 24.1365C71.3036 21.824 69.8355 19.7475 68.0306 18.0166C65.3929 17.7934 40.1097 15.9541 40.1097 26.4962C40.1097 38.9719 57.5969 35.3074 57.2997 40.9133C57.1849 43.125 56.1837 47.3036 55.7245 51.713C57.9758 51.5714 60.1199 51.0497 62.1008 50.2054L62.0995 50.2041Z" fill="white"/>
</g>
<defs>
<clipPath id="clip0_649_202743">
<rect width="137.755" height="100" fill="white" transform="translate(0.122452)"/>
</clipPath>
</defs>
</svg>
